<svg width="65" height="65" viewBox="0 0 65 65" fill="none" xmlns="http://www.w3.org/2000/svg">
<rect width="65" height="65" rx="10" fill="#BEBEBE"/>
<path d="M41.5726 29.3252L41.1478 28.295C42.6048 24.9327 42.5101 24.832 42.225 24.545L40.3627 22.6875L40.1781 22.5274H39.9632C39.848 22.5274 39.5111 22.5274 36.678 23.837L35.635 23.4073C34.2874 20 34.1506 20 33.7502 20H31.1282C30.7337 20 30.5804 20 29.3333 23.42L28.2952 23.8497C26.3831 23.0245 25.26 22.5997 24.9572 22.5997H24.7072L22.7072 24.5997C22.4006 24.9122 22.2932 25.0148 23.8352 28.3252L23.4104 29.3526C20.0001 30.6973 20.0001 30.8272 20.0001 31.25V33.87C20.0001 34.2821 20.0001 34.4276 23.4229 35.6796L23.8477 36.705C22.3906 40.0672 22.4873 40.168 22.7705 40.455L24.6328 42.3153L24.8174 42.4774H25.0352C25.1475 42.4774 25.4824 42.4774 28.3174 41.1649L29.3575 41.5976C30.7051 44.9998 30.8428 44.9998 31.25 44.9998H33.8673C34.2696 44.9998 34.4122 44.9998 35.6651 41.5818L36.7081 41.1521C38.6202 41.9773 39.7384 42.4021 40.0401 42.4021H40.2901L42.3096 40.3845C42.5967 40.0896 42.6973 39.9871 41.1651 36.6893L41.588 35.6619C45 34.3026 45 34.16 45 33.7498V31.1298C45 30.7177 45 30.5722 41.5722 29.3251L41.5726 29.3252ZM32.5004 36.8722C31.3392 36.8752 30.225 36.4162 29.4026 35.5968C28.5794 34.7775 28.1165 33.6642 28.1155 32.5031C28.1136 31.3429 28.5735 30.2287 29.3938 29.4063C30.2141 28.585 31.3274 28.1231 32.4886 28.1222C33.6497 28.1222 34.763 28.5831 35.5843 29.4044C36.4056 30.2257 36.8656 31.339 36.8656 32.5001C36.8636 33.6583 36.4027 34.7677 35.5853 35.5871C34.767 36.4065 33.6586 36.8683 32.5004 36.8722Z" fill="#3F3F3F"/>
</svg>
