<svg width="29" height="29" viewBox="0 0 29 29" fill="none" xmlns="http://www.w3.org/2000/svg">
<path d="M4.125 28.875C6.41051 28.875 8.25 27.0355 8.25 24.75C8.25 22.4645 6.41051 20.625 4.125 20.625C1.83949 20.625 0 22.4645 0 24.75C0 27.0355 1.83949 28.875 4.125 28.875Z" fill="black"/>
<path d="M14.4375 28.875C16.723 28.875 18.5625 27.0355 18.5625 24.75C18.5625 22.4645 16.723 20.625 14.4375 20.625C12.152 20.625 10.3125 22.4645 10.3125 24.75C10.3125 27.0355 12.152 28.875 14.4375 28.875Z" fill="black"/>
<path d="M24.75 28.875C27.0355 28.875 28.875 27.0355 28.875 24.75C28.875 22.4645 27.0355 20.625 24.75 20.625C22.4645 20.625 20.625 22.4645 20.625 24.75C20.625 27.0355 22.4645 28.875 24.75 28.875Z" fill="black"/>
<path d="M4.125 18.5625C6.41051 18.5625 8.25 16.723 8.25 14.4375C8.25 12.152 6.41051 10.3125 4.125 10.3125C1.83949 10.3125 0 12.152 0 14.4375C0 16.723 1.83949 18.5625 4.125 18.5625Z" fill="black"/>
<path d="M14.4375 18.5625C16.723 18.5625 18.5625 16.723 18.5625 14.4375C18.5625 12.152 16.723 10.3125 14.4375 10.3125C12.152 10.3125 10.3125 12.152 10.3125 14.4375C10.3125 16.723 12.152 18.5625 14.4375 18.5625Z" fill="black"/>
<path d="M24.75 18.5625C27.0355 18.5625 28.875 16.723 28.875 14.4375C28.875 12.152 27.0355 10.3125 24.75 10.3125C22.4645 10.3125 20.625 12.152 20.625 14.4375C20.625 16.723 22.4645 18.5625 24.75 18.5625Z" fill="black"/>
<path d="M4.125 8.25C6.41051 8.25 8.25 6.41052 8.25 4.125C8.25 1.83949 6.41051 9.53674e-07 4.125 9.53674e-07C1.83949 9.53674e-07 0 1.83949 0 4.125C0 6.41052 1.83949 8.25 4.125 8.25Z" fill="black"/>
<path d="M14.4375 8.25C16.723 8.25 18.5625 6.41052 18.5625 4.125C18.5625 1.83949 16.723 9.53674e-07 14.4375 9.53674e-07C12.152 9.53674e-07 10.3125 1.83949 10.3125 4.125C10.3125 6.41052 12.152 8.25 14.4375 8.25Z" fill="black"/>
<path d="M24.75 8.25C27.0355 8.25 28.875 6.41052 28.875 4.125C28.875 1.83949 27.0355 9.53674e-07 24.75 9.53674e-07C22.4645 9.53674e-07 20.625 1.83949 20.625 4.125C20.625 6.41052 22.4645 8.25 24.75 8.25Z" fill="black"/>
</svg>
