<svg width="30" height="36" viewBox="0 0 30 36" fill="none" xmlns="http://www.w3.org/2000/svg">
<path d="M2.64177 7.91038C3.03268 7.03423 3.90212 6.46977 4.86082 6.46977H8.40764C7.67134 5.03085 6.17677 4.04346 4.44803 4.04346C1.99139 4.04346 0 6.03506 0 8.49148C0 10.9479 1.99161 12.9395 4.44803 12.9395C4.6974 12.9395 4.94002 12.9142 5.1776 12.8738L3.05625 10.5233C2.41428 9.8106 2.25084 8.78616 2.64007 7.90997L2.64177 7.91038Z" fill="black"/>
<path d="M29.0871 0.585886C28.9641 0.156228 28.5142 -0.0914547 28.0879 0.0315217L23.2301 1.41993C22.4753 1.63392 21.8687 2.20511 21.6075 2.94482L19.7929 8.08904L4.861 8.08736C4.15838 8.08736 3.78936 8.91972 4.25949 9.44204L15.1596 21.5197C15.2944 21.668 15.3685 21.8617 15.3685 22.0622V31.3901C15.3685 31.7068 15.1832 31.9949 14.895 32.1264L10.681 34.0421C9.88909 34.4027 10.1452 35.5872 11.0163 35.5872H21.3418C22.2112 35.5872 22.4691 34.4027 21.6771 34.0421L17.4631 32.1264C17.175 31.9949 16.9896 31.7068 16.9896 31.3901V22.0622C16.9896 21.8617 17.0638 21.6696 17.1986 21.5197L28.0986 9.44204C28.5687 8.91972 28.1997 8.08736 27.4971 8.08736H21.5105L23.1364 3.48232C23.2224 3.23632 23.4263 3.04593 23.6773 2.97346L28.5351 1.58505C28.9648 1.46205 29.2141 1.01555 29.0912 0.585883L29.0871 0.585886ZM14.5594 15.3663C14.1129 15.3663 13.7506 15.0041 13.7506 14.5576C13.7506 14.1111 14.1129 13.7488 14.5594 13.7488C15.0059 13.7488 15.3682 14.1111 15.3682 14.5576C15.3682 15.0041 15.0059 15.3663 14.5594 15.3663ZM16.9857 16.9839C16.5392 16.9839 16.1769 16.6216 16.1769 16.1751C16.1769 15.7286 16.5392 15.3663 16.9857 15.3663C17.4322 15.3663 17.7945 15.7286 17.7945 16.1751C17.7945 16.6216 17.4322 16.9839 16.9857 16.9839ZM18.364 12.1313H8.86577L6.67536 9.70494H19.218L18.362 12.1313H18.364ZM25.6783 9.70494L23.4879 12.1313H20.0793L20.9352 9.70494H25.6783Z" fill="black"/>
</svg>
