<svg width="31" height="35" viewBox="0 0 31 35" fill="none" xmlns="http://www.w3.org/2000/svg">
<path d="M15.243 9.57566C15.2029 9.60355 15.1642 9.63283 15.1269 9.66489C14.95 9.81129 14.7731 9.96465 14.6169 10.125L14.5851 10.1613C14.4469 10.3258 14.3197 10.4973 14.1953 10.6716L14.1745 10.7036C14.1179 10.804 14.0653 10.903 14.0114 11.0145L13.9838 11.0759V11.0745C13.9368 11.1637 13.8981 11.2557 13.8663 11.3492C13.8304 11.4565 13.7986 11.5639 13.7737 11.6698L13.735 11.8302L13.7364 11.8316C13.7253 11.8832 13.7184 11.9361 13.7142 11.9891V12.0282C13.6852 12.2512 13.6852 12.4757 13.7142 12.6988V12.7601C13.7253 12.8438 13.7405 12.9275 13.7599 13.0097V13.0529C13.7806 13.1282 13.8027 13.2035 13.8207 13.2495V13.2481C13.8691 13.3973 13.9313 13.5409 14.0087 13.6776L14.0474 13.7487C14.122 13.8728 14.2049 13.9927 14.2948 14.1056L14.3224 14.1377L14.3584 14.1767C14.4303 14.2576 14.5077 14.3343 14.5892 14.4054L14.6251 14.4332H14.6238C14.6887 14.489 14.7551 14.5392 14.8256 14.5866C14.9375 14.6647 15.0564 14.7316 15.1794 14.7874L15.2223 14.8055C15.2886 14.8334 15.3563 14.8571 15.4268 14.8724H15.4448C15.5886 14.9031 15.7392 14.8669 15.8553 14.7762C15.9645 14.6898 16.0337 14.5601 16.0433 14.4193V14.2771V14.1098L16.071 13.8212L16.1097 13.5995V13.5981C16.1346 13.4852 16.1719 13.375 16.2203 13.2704C16.2382 13.2384 16.2562 13.2063 16.27 13.177L16.2949 13.145L16.3336 13.0948L16.4013 13.0264L16.4939 12.9581H16.5147L16.6349 12.88L16.6335 12.8814C16.6916 12.8508 16.7469 12.8173 16.8008 12.7811C16.8768 12.7504 16.9501 12.7127 17.0192 12.6667L17.1436 12.6026L17.3454 12.4952L17.7559 12.2666C18.1347 12.0296 18.4747 11.7354 18.7636 11.3924C19.0691 11.0313 19.3027 10.6144 19.4506 10.1654C19.5888 9.74995 19.6455 9.31218 19.6206 8.87576C19.5985 8.50909 19.5183 8.14656 19.3801 7.80498C19.1921 7.33512 18.8949 6.91683 18.5162 6.585C18.4194 6.49855 18.3144 6.42187 18.2052 6.35216L18.1596 6.32427C18.1029 6.28802 18.0435 6.25456 17.9826 6.22807C17.8444 6.1723 17.691 6.18206 17.5611 6.25317C17.4284 6.32706 17.3371 6.45812 17.3136 6.6101L17.2888 6.75649C17.2888 6.79274 17.2888 6.83876 17.2639 6.89174L17.2321 7.05208C17.1713 7.36578 17.0869 7.67531 16.9805 7.97645C16.9294 8.11866 16.8658 8.2539 16.7898 8.38356C16.7248 8.48952 16.6488 8.58712 16.5631 8.67635C16.4732 8.76698 16.3779 8.85203 16.277 8.93011C16.1636 9.01516 16.0365 9.10439 15.8955 9.19362L15.6785 9.30098L15.6218 9.33723L15.5333 9.39439L15.3453 9.52266L15.243 9.57566ZM15.5015 3.28359C15.6231 3.87056 15.6328 4.47709 15.5291 5.06823C15.413 5.71377 15.1725 6.33144 14.8214 6.88492C14.4924 7.41475 14.0833 7.88878 13.6078 8.29172L13.0839 8.69466L12.8254 8.88706L12.6527 9.01254C12.5683 9.08922 12.4757 9.15755 12.3776 9.2161C12.3043 9.28024 12.2297 9.34158 12.1509 9.39735C12.1053 9.44337 12.0514 9.49077 11.9989 9.5326L11.9602 9.56466H11.9588C11.9242 9.6051 11.8883 9.64414 11.8496 9.67899C11.8496 9.67899 11.8289 9.69991 11.8178 9.71524L11.7252 9.83236C11.7127 9.86303 11.6962 9.89091 11.6796 9.9188L11.6519 9.96899V10.0052C11.6519 10.0513 11.6243 10.0945 11.6022 10.1447V10.1433C11.5483 10.3189 11.5151 10.5002 11.5026 10.6828V11.0119L11.4888 11.4427C11.4888 11.5459 11.4888 11.6351 11.5096 11.6992L11.5344 11.8958C11.5524 12.045 11.5068 12.1956 11.4087 12.3085C11.3091 12.42 11.1668 12.4856 11.0175 12.4856H10.9788C10.8875 12.4758 10.7963 12.4591 10.7065 12.4354H10.6539C10.4715 12.3866 10.2932 12.3211 10.1232 12.2388C10.0167 12.1872 9.91168 12.13 9.81216 12.0673L9.7624 12.0394C9.63938 11.9599 9.52051 11.8749 9.40854 11.7815L9.34496 11.7313L9.31317 11.7034C9.16942 11.5696 9.03396 11.426 8.90956 11.2754L8.84598 11.1903V11.1889C8.71743 11.023 8.60547 10.8459 8.51286 10.6577C8.47692 10.5894 8.43546 10.4974 8.39261 10.397L8.36773 10.3356C8.32626 10.2311 8.29032 10.1237 8.2613 10.015L8.23642 9.92574C8.1521 9.63155 8.10787 9.3262 8.10234 9.01946V8.94417C8.09819 8.87585 8.09819 8.80893 8.10234 8.74061L8.12307 8.51195C8.12307 8.35858 8.15901 8.20522 8.18666 8.04766C8.21015 7.9166 8.24333 7.78554 8.28618 7.65868L8.31382 7.56526C8.36358 7.40771 8.41611 7.25853 8.47278 7.10797L8.49075 7.06893C8.62206 6.80123 8.76996 6.53354 8.92616 6.27698L8.95381 6.23375C9.14456 5.97721 9.35327 5.72624 9.56891 5.48785L9.57029 5.48924C9.61314 5.44044 9.65737 5.39304 9.70575 5.34982L9.83706 5.22434C9.9117 5.15323 9.99326 5.08212 10.0748 5.00683L10.2158 4.87856L10.2476 4.85067L10.5517 4.60389C10.7397 4.44355 10.9055 4.286 11.0548 4.13681H11.0534C11.1875 3.99878 11.3119 3.85239 11.4253 3.69761C11.5372 3.54146 11.6298 3.37415 11.7045 3.19709C11.7916 2.98935 11.8579 2.77324 11.9021 2.55155C11.9934 2.09565 12.05 1.63136 12.0722 1.16707V0.931436V0.720905V0.517346C12.0763 0.352823 12.1551 0.199458 12.2864 0.103238C12.4163 0.00563943 12.585 -0.0250349 12.7412 0.0209766C12.8269 0.0432846 12.9112 0.073959 12.9927 0.110209L13.0605 0.138094C13.2208 0.209201 13.3756 0.292854 13.5235 0.389057C14.1041 0.764117 14.5892 1.27302 14.9389 1.87395C15.2029 2.30897 15.3923 2.78585 15.5015 3.28359ZM30.8265 23.5503C31.2619 21.7838 30.8679 19.9129 29.7566 18.4794C28.6453 17.046 26.941 16.2082 25.1371 16.2082H1.54219C1.11785 16.2068 0.71425 16.3825 0.42257 16.692C0.130917 17.0029 -0.0211263 17.4198 0.00236956 17.8465C0.18759 20.681 0.669983 23.4891 1.4399 26.2232C2.01767 28.2742 3.15665 30.1202 4.72687 31.5479H2.69498C1.7509 31.5479 0.98516 32.3217 0.98516 33.2739C0.98516 34.2276 1.75093 35 2.69498 35H21.9385C22.8826 35 23.6484 34.2276 23.6484 33.2739C23.6484 32.3216 22.8826 31.5479 21.9385 31.5479H19.9039C20.9889 30.5594 21.8736 29.3673 22.508 28.0358H25.1371C26.446 28.0358 27.7163 27.5952 28.7474 26.7809C29.7786 25.9681 30.5113 24.8303 30.8265 23.5503ZM27.3805 22.6859C27.1317 23.733 26.2043 24.4705 25.1372 24.4705H23.6402C24.001 22.9327 24.2733 21.3753 24.4571 19.8055H25.1372C25.849 19.8055 26.5208 20.1359 26.959 20.7006C27.3971 21.2666 27.552 22.0042 27.3805 22.6999V22.6859Z" fill="black"/>
</svg>
