<svg width="30" height="12" viewBox="0 0 30 12" fill="none" xmlns="http://www.w3.org/2000/svg">
<path fill-rule="evenodd" clip-rule="evenodd" d="M18.363 0C18.2765 0 18.1848 0.0180839 18.1047 0.0516689C18.0246 0.0852538 17.9484 0.135632 17.8877 0.196342C17.827 0.257051 17.7869 0.32293 17.7533 0.403017C17.7198 0.483105 17.7017 0.574816 17.7017 0.661361V5.03263H11.2018C10.8724 2.24767 8.49307 0.0826702 5.62157 0.0826702C2.5266 0.0826702 0 2.59766 0 5.69399C0 8.79032 2.5266 11.3156 5.62157 11.3156C8.49307 11.3156 10.8725 9.14031 11.2018 6.35535H17.7017V10.7369C17.7017 10.8234 17.7198 10.9151 17.7533 10.9952C17.7869 11.0753 17.827 11.1412 17.8877 11.2019C17.9484 11.2626 18.0246 11.313 18.1047 11.3466C18.1848 11.3801 18.2765 11.3982 18.363 11.3982H28.4385C28.5251 11.3982 28.6065 11.3802 28.6866 11.3466C28.7666 11.313 28.8428 11.2626 28.9036 11.2019C28.9643 11.1412 29.0146 11.0753 29.0482 10.9952C29.0818 10.9151 29.0999 10.8234 29.0999 10.7369V0.661361C29.0999 0.574816 29.0818 0.483105 29.0482 0.403017C29.0146 0.32293 28.9643 0.257051 28.9036 0.196342C28.8428 0.135632 28.7666 0.0852528 28.6866 0.0516689C28.6065 0.0180849 28.5251 0 28.4385 0H18.363ZM19.0244 1.32272H27.7772V10.0755H19.0244V6.35535H23.3957C23.4835 6.35535 23.5726 6.34631 23.654 6.31402C23.7354 6.28173 23.809 6.23006 23.871 6.16935C23.933 6.10864 23.9821 6.03242 24.0157 5.95234C24.0493 5.87225 24.0674 5.78183 24.0674 5.69399C24.0674 5.60615 24.0493 5.52607 24.0157 5.44598C23.9821 5.36589 23.933 5.28968 23.871 5.22897C23.809 5.16826 23.7354 5.11659 23.654 5.0843C23.5726 5.05201 23.4835 5.03134 23.3957 5.03263H19.0244V1.32272Z" fill="#B4B4B4"/>
</svg>
