<svg width="25" height="25" viewBox="0 0 25 25" fill="none" xmlns="http://www.w3.org/2000/svg">
<path fill-rule="evenodd" clip-rule="evenodd" d="M20.0324 4.06463L20.3906 4.88779C20.5435 5.24075 20.5391 5.64171 20.3761 5.9902L16.0513 15.2706C15.7399 15.9419 14.943 16.2323 14.2723 15.9196L8.29113 13.1284C7.62036 12.8156 7.33131 12.0182 7.6427 11.3469L11.9675 2.06532C12.1305 1.71797 12.4341 1.45549 12.8024 1.34715L14.8972 0.726134C15.4195 0.572 15.9809 0.613326 16.4742 0.844526L18.4162 1.75035C18.9095 1.97932 19.3012 2.38252 19.5177 2.8829L19.6729 3.23919C19.8816 3.10516 20.0535 2.91195 20.1628 2.67851C20.5456 1.85869 21.0244 0.831145 21.0244 0.831145C21.1282 0.607762 21.3938 0.511703 21.617 0.614464C21.8403 0.719455 21.9374 0.985287 21.8324 1.20866C21.8324 1.20866 21.3548 2.23623 20.9709 3.05602C20.7688 3.49161 20.4364 3.84015 20.0324 4.06463ZM18.7935 3.45591L18.7009 3.23923C18.5681 2.93989 18.3337 2.69754 18.038 2.56015L16.0971 1.6532C15.8013 1.51582 15.4654 1.49013 15.1518 1.58395L13.0558 2.20385C12.932 2.23959 12.8315 2.32671 12.7779 2.44399L8.4531 11.7244C8.34819 11.9489 8.44529 12.2136 8.6685 12.3186L14.6485 15.1087C14.8717 15.2137 15.1384 15.1176 15.2433 14.8931L19.567 5.61267C19.6217 5.49539 19.6228 5.36248 19.5715 5.24407L19.1764 4.33378C19.1307 4.33937 19.0882 4.34272 19.0425 4.34384H19.0347C18.6441 4.35389 18.1954 4.36506 17.7735 4.37511C17.7478 4.47452 17.7132 4.57169 17.6686 4.66662C17.2891 5.48086 16.3215 5.83267 15.509 5.45293C14.6943 5.0743 14.3416 4.10482 14.7211 3.29169C15.1005 2.47745 16.0693 2.12452 16.8829 2.50315C17.3103 2.7042 17.6106 3.06609 17.7445 3.48381C18.0927 3.47487 18.4576 3.46485 18.7935 3.45591ZM16.7601 3.51176C16.6931 3.43022 16.6083 3.36097 16.5045 3.31295C16.1384 3.14206 15.7009 3.30178 15.5313 3.66924C15.3594 4.03558 15.5179 4.47342 15.8851 4.64432C16.2121 4.79622 16.5949 4.68677 16.7947 4.40084C16.4933 4.40977 16.2869 4.41759 16.2556 4.42094C16.0112 4.45445 15.7869 4.28356 15.7534 4.04008C15.7188 3.79548 15.8907 3.56987 16.134 3.53636C16.1697 3.53077 16.4119 3.52181 16.7601 3.51176ZM19.5056 8.91641H19.6418C19.7913 8.91641 19.9319 8.99125 20.0145 9.11522L20.5357 9.89819L21.0569 9.11522C21.1395 8.99125 21.2801 8.91641 21.4297 8.91641H23.6596C24.4007 8.91641 25 9.51621 25 10.2567V23.6597C25 24.4002 24.4007 25 23.6596 25H21.4297C21.2801 25 21.1395 24.9252 21.0569 24.8012L20.5357 24.0182L20.0145 24.8012C19.9319 24.9252 19.7913 25 19.6418 25H1.3404C0.599312 25 0 24.4002 0 23.6597V10.2567C0 9.51621 0.599341 8.91641 1.3404 8.91641H4.70867C4.65064 9.52179 4.90287 10.1428 5.42852 10.5292L7.07918 11.7433C7.00886 12.4749 7.39837 13.2043 8.1026 13.5337L9.13943 14.0174C8.45306 14.8025 8.03563 15.8324 8.03563 16.9581C8.03563 19.4243 10.0356 21.4258 12.4999 21.4258C14.9642 21.4258 16.9642 19.4243 16.9642 16.9581C16.9642 16.3215 16.8314 15.7173 16.5914 15.17L19.5056 8.91641ZM2.67852 12.4905H6.24993C6.49547 12.4905 6.69636 12.2906 6.69636 12.0438C6.69636 11.7969 6.49547 11.597 6.24993 11.597H2.67852C2.43298 11.597 2.23209 11.7969 2.23209 12.0438C2.23209 12.2906 2.43298 12.4905 2.67852 12.4905ZM2.67852 19.6388H6.24993C6.49547 19.6388 6.69636 19.4378 6.69636 19.192C6.69636 18.9452 6.49547 18.7453 6.24993 18.7453H2.67852C2.43298 18.7453 2.23209 18.9452 2.23209 19.192C2.23209 19.4378 2.43298 19.6388 2.67852 19.6388ZM2.67852 14.7242H6.24993C6.49547 14.7242 6.69636 14.5232 6.69636 14.2775C6.69636 14.0306 6.49547 13.8307 6.24993 13.8307H2.67852C2.43298 13.8307 2.23209 14.0306 2.23209 14.2775C2.23209 14.5232 2.43298 14.7242 2.67852 14.7242ZM2.67852 16.9581H6.24993C6.49547 16.9581 6.69636 16.757 6.69636 16.5113C6.69636 16.2645 6.49547 16.0645 6.24993 16.0645H2.67852C2.43298 16.0645 2.23209 16.2645 2.23209 16.5113C2.23209 16.757 2.43298 16.9581 2.67852 16.9581ZM20.0893 16.0645V17.8516C20.0893 18.0984 20.2902 18.2984 20.5357 18.2984C20.7813 18.2984 20.9822 18.0984 20.9822 17.8516V16.0645C20.9822 15.8177 20.7813 15.6167 20.5357 15.6167C20.2902 15.6167 20.0893 15.8177 20.0893 16.0645ZM20.0893 19.6387V21.4257C20.0893 21.6714 20.2902 21.8725 20.5357 21.8725C20.7813 21.8725 20.9822 21.6714 20.9822 21.4257V19.6387C20.9822 19.3918 20.7813 19.1919 20.5357 19.1919C20.2902 19.1919 20.0893 19.3918 20.0893 19.6387ZM2.67852 22.3193H6.24993C6.49547 22.3193 6.69636 22.1182 6.69636 21.8725C6.69636 21.6257 6.49547 21.4257 6.24993 21.4257H2.67852C2.43298 21.4257 2.23209 21.6257 2.23209 21.8725C2.23209 22.1182 2.43298 22.3193 2.67852 22.3193ZM20.0893 12.4904V14.2775C20.0893 14.5232 20.2902 14.7242 20.5357 14.7242C20.7813 14.7242 20.9822 14.5232 20.9822 14.2775V12.4904C20.9822 12.2436 20.7813 12.0436 20.5357 12.0436C20.2902 12.0436 20.0893 12.2436 20.0893 12.4904ZM15.9653 16.0914C16.0345 16.3684 16.0714 16.6588 16.0714 16.9581C16.0714 18.9306 14.4698 20.5311 12.4999 20.5311C10.5301 20.5311 8.92852 18.9306 8.92852 16.9581C8.92852 15.9641 9.33589 15.0627 9.99103 14.4138L14.0824 16.3237C14.7242 16.6231 15.4508 16.508 15.9653 16.0914ZM7.18964 11.2709L5.69411 10.1696C5.09925 9.73292 4.96865 8.89969 5.40171 8.30326L11.0177 0.553978C11.3279 0.125082 11.8614 -0.0804443 12.3782 0.0290385L14.3045 0.436718L12.6751 0.918111C12.1851 1.06331 11.78 1.41291 11.5623 1.87643L7.2375 11.158C7.22076 11.1949 7.20638 11.2329 7.18964 11.2709Z" fill="#B4B4B4"/>
</svg>
