<svg width="24" height="24" viewBox="0 0 24 24" fill="none" xmlns="http://www.w3.org/2000/svg">
<path d="M3.49989 0C4.14409 0 4.66689 0.522797 4.66689 1.167V9.33375C4.66689 9.97795 4.14409 10.4997 3.49989 10.4997C2.85569 10.4997 2.33398 9.97795 2.33398 9.33375V1.167C2.33398 0.522797 2.85569 0 3.49989 0Z" fill="#B4B4B4"/>
<path d="M4.66687 15.1664H5.83387C6.47807 15.1664 6.99978 14.6436 6.99978 13.9994C6.99978 13.3552 6.47807 12.8335 5.83387 12.8335H1.167C0.522797 12.8335 0 13.3552 0 13.9994C0 14.6436 0.522797 15.1664 1.167 15.1664H2.334V22.1662C2.334 22.8104 2.8557 23.3331 3.4999 23.3331C4.1441 23.3331 4.6669 22.8104 4.6669 22.1662L4.66687 15.1664Z" fill="#B4B4B4"/>
<path d="M13.9995 10.4994H12.8336V22.166C12.8336 22.8102 12.3108 23.333 11.6666 23.333C11.0224 23.333 10.4996 22.8102 10.4996 22.166V10.4994H9.33369C8.68948 10.4994 8.16669 9.9777 8.16669 9.3335C8.16669 8.6893 8.68948 8.1665 9.33369 8.1665H13.9994C14.6436 8.1665 15.1664 8.6893 15.1664 9.3335C15.1664 9.9777 14.6437 10.4994 13.9995 10.4994Z" fill="#B4B4B4"/>
<path d="M11.6666 0C12.3108 0 12.8336 0.522797 12.8336 1.167V4.66687C12.8336 5.31107 12.3108 5.83387 11.6666 5.83387C11.0224 5.83387 10.4996 5.31107 10.4996 4.66687V1.167C10.4996 0.522797 11.0224 0 11.6666 0Z" fill="#B4B4B4"/>
<path d="M20.9993 1.167C20.9993 0.522797 20.4776 0 19.8334 0C19.1892 0 18.6664 0.522797 18.6664 1.167V13.9995C18.6664 14.6437 19.1892 15.1665 19.8334 15.1665C20.4776 15.1665 20.9993 14.6437 20.9993 13.9995V1.167Z" fill="#B4B4B4"/>
<path d="M20.9993 19.8335H22.1663C22.8105 19.8335 23.3333 19.3107 23.3333 18.6665C23.3333 18.0223 22.8105 17.4995 22.1663 17.4995H17.4994C16.8552 17.4995 16.3335 18.0223 16.3335 18.6665C16.3335 19.3107 16.8552 19.8335 17.4994 19.8335H18.6664V22.1664C18.6664 22.8106 19.1892 23.3334 19.8334 23.3334C20.4776 23.3334 20.9993 22.8106 20.9993 22.1664L20.9993 19.8335Z" fill="#B4B4B4"/>
</svg>
