<svg width="25" height="20" viewBox="0 0 25 20" fill="none" xmlns="http://www.w3.org/2000/svg">
<path d="M16.7038 5.83677C16.7038 8.1553 14.824 10.0352 12.5053 10.0352C10.1866 10.0352 8.30682 8.15544 8.30682 5.83677C8.30682 3.51824 10.1866 1.6394 12.5053 1.6394C14.824 1.6394 16.7038 3.51813 16.7038 5.83677Z" fill="#B4B4B4"/>
<path d="M15.5351 9.6182C14.7565 10.3968 13.45 10.6749 12.5054 10.6749C11.5323 10.6749 10.2259 10.3968 9.44728 9.59106C6.75083 10.6195 4.72115 13.9002 4.19349 16.7909C4.02625 17.6532 4.63875 18.3753 5.49991 18.6533C7.1962 19.1811 9.89271 19.4874 12.5054 19.4874C15.9522 19.4874 18.1493 19.154 19.6783 18.6251C20.4016 18.3753 20.9293 17.7628 20.8186 17.0124C20.318 14.038 18.2883 10.6747 15.5353 9.61798L15.5351 9.6182Z" fill="#B4B4B4"/>
<path d="M9.25301 9.14594C8.64161 8.56168 8.19636 7.78414 7.97373 6.92187C7.50134 7.08911 7.02894 7.1445 6.61193 7.1445C5.83329 7.1445 4.80488 6.92187 4.19348 6.28223C2.08018 7.088 0.468733 9.702 0.0233642 11.9814C-0.11564 12.6764 0.384997 13.2324 1.05177 13.4551C1.96942 13.7331 3.22046 13.9274 4.5822 14.0393C5.55522 11.9532 7.19503 9.95188 9.25301 9.14594Z" fill="#B4B4B4"/>
<path d="M6.58353 6.64385C7.02879 6.64385 7.47294 6.56023 7.86282 6.39407C7.83458 6.19968 7.83458 6.00531 7.83458 5.80981C7.83458 4.30901 8.55785 2.94605 9.66988 2.08506C9.16924 0.86227 7.97359 0 6.58344 0C4.74814 0 3.2757 1.47367 3.2757 3.30774C3.2757 5.14195 4.74946 6.64385 6.58353 6.64385Z" fill="#B4B4B4"/>
<path d="M24.9874 12.1756C24.5986 9.81254 22.986 7.17146 20.8173 6.30908C20.2059 6.92048 19.1775 7.14311 18.3988 7.14311C17.9818 7.14311 17.4812 7.08772 17.037 6.92048C16.8144 7.78275 16.3703 8.53315 15.7578 9.14455C17.8146 9.97857 19.4555 11.953 20.4286 14.065C22.0412 13.9542 23.2086 13.7588 24.098 13.4254C24.6823 13.2603 25.0993 12.787 24.9874 12.1756Z" fill="#B4B4B4"/>
<path d="M17.1763 5.80976C17.1763 6.00415 17.1763 6.19853 17.148 6.39403C17.5368 6.56126 17.9821 6.6438 18.4273 6.6438C20.2626 6.6438 21.7351 5.17013 21.7351 3.33606C21.7351 1.50076 20.2614 0.0283203 18.4273 0.0283203C17.0373 0.0283203 15.8416 0.89059 15.3409 2.11338C16.4529 2.94632 17.1762 4.28098 17.1762 5.81005L17.1763 5.80976Z" fill="#B4B4B4"/>
</svg>
