<svg width="23" height="21" viewBox="0 0 23 21" fill="none" xmlns="http://www.w3.org/2000/svg">
<path d="M0 18.7501C0 17.8399 0.54785 17.0196 1.38867 16.671C2.2295 16.3233 3.19728 16.5157 3.84083 17.1592C4.48438 17.8028 4.67677 18.7706 4.3291 19.6114C3.98048 20.4522 3.16015 21.0001 2.25 21.0001C1.0078 21.0001 0 19.9923 0 18.7501ZM2.25 4.50005C3.16015 4.50005 3.98048 3.9522 4.3291 3.11138C4.67675 2.27055 4.48437 1.30278 3.84083 0.659228C3.19728 0.0156775 2.2295 -0.176722 1.38867 0.170953C0.54785 0.519578 0 1.3399 0 2.25005C0 3.49225 1.0078 4.50005 2.25 4.50005ZM2.25 12.7501C3.16015 12.7501 3.98048 12.2022 4.3291 11.3614C4.67675 10.5206 4.48437 9.55278 3.84083 8.90923C3.19728 8.26568 2.2295 8.07328 1.38867 8.42095C0.54785 8.76958 0 9.5899 0 10.5001C0 11.7423 1.0078 12.7501 2.25 12.7501ZM9.75 3.75005H21C21.8281 3.75005 22.5 3.07818 22.5 2.25005C22.5 1.42193 21.8281 0.750053 21 0.750053H9.75C8.92188 0.750053 8.25 1.42193 8.25 2.25005C8.25 3.07818 8.92188 3.75005 9.75 3.75005ZM9.75 12.0001H21C21.8281 12.0001 22.5 11.3282 22.5 10.5001C22.5 9.67193 21.8281 9.00005 21 9.00005H9.75C8.92188 9.00005 8.25 9.67193 8.25 10.5001C8.25 11.3282 8.92188 12.0001 9.75 12.0001ZM9.75 20.2501H21C21.8281 20.2501 22.5 19.5782 22.5 18.7501C22.5 17.9219 21.8281 17.2501 21 17.2501H9.75C8.92188 17.2501 8.25 17.9219 8.25 18.7501C8.25 19.5782 8.92188 20.2501 9.75 20.2501Z" fill="#B4B4B4"/>
</svg>
