<svg width="31" height="31" viewBox="0 0 31 31" fill="none" xmlns="http://www.w3.org/2000/svg">
<path d="M14.137 1.1322C20.524 1.1322 25.3058 4.80019 25.216 11.3152C25.1615 15.3014 21.0854 15.9661 19.1565 19.1358C17.5575 21.7634 19.6118 29.2645 13.9144 29.3366L13.7685 29.3381C6.80092 29.3381 1.13182 23.0114 1.13182 15.2349C1.13182 7.62029 6.69038 1.15404 14.1356 1.13178H14.1371M14.1371 0C6.01278 0.0235788 0 7.05025 0 15.2349C0 23.5905 6.14973 30.4698 13.7685 30.4698C13.8216 30.4698 13.8746 30.4698 13.9277 30.4684C20.7523 30.3829 18.7981 21.9004 20.123 19.7251C21.8841 16.8323 26.2845 15.9525 26.3479 11.3311C26.4466 4.07898 21.0485 0 14.1371 0Z" fill="black"/>
<path d="M13.9676 3.39746C8.13783 3.46525 3.39566 8.77645 3.39566 15.2355C3.39566 21.618 7.91109 27.1117 13.8854 27.0736C15.0894 27.0589 15.6936 27.0515 16.1254 22.5053C16.2845 20.8342 16.4349 19.2544 17.2218 17.9605C19.3336 14.4915 22.9177 13.7974 22.9516 11.2864C23.0253 5.97076 19.1745 3.36388 13.9683 3.39784L13.9676 3.39746ZM14.0119 11.5659C12.4321 11.5659 11.1529 10.412 11.1529 8.98847C11.1529 7.56491 12.4335 6.41102 14.0119 6.41102C15.5916 6.41102 16.8708 7.56491 16.8708 8.98847C16.8708 10.412 15.5902 11.5659 14.0119 11.5659Z" fill="black"/>
<path d="M30.875 11.3314C30.8116 15.9528 26.4112 16.8326 24.6502 19.7254C23.3312 21.8932 25.2647 30.3196 18.5299 30.4672C18.4901 30.3684 18.5166 30.4362 18.4768 30.3375C20.4884 28.4099 20.7964 25.1913 21.0086 22.9692C21.094 22.0702 21.2105 20.8412 21.4123 20.5096C21.9134 19.6873 22.7784 19.0006 23.6951 18.2726C25.5269 16.8181 27.8065 15.0084 27.8566 11.3521C27.9053 7.77697 26.7381 4.67913 24.4834 2.39368C23.7657 1.66716 22.9478 1.03641 22.0474 0.504437C21.9737 0.460226 22.0165 0.345278 22.1005 0.36444C27.2818 1.5095 30.9561 5.33668 30.875 11.3314Z" fill="black"/>
</svg>
