<svg width="7" height="7" viewBox="0 0 7 7" fill="none" xmlns="http://www.w3.org/2000/svg">
<path d="M5.53308 0.100954C5.14768 0.311623 0.291487 5.1456 0.017879 5.68C-0.138093 5.98461 0.763775 6.98052 1.27086 6.81359C1.57332 6.71419 7.02728 1.40176 7.00293 1.01782C6.97002 0.498451 6.22723 -0.278874 5.53308 0.100954ZM2.52143 1.53047C2.60302 1.01885 2.41821 0.42378 1.63386 0.296132C0.849066 0.168449 0.474 0.685999 0.395183 1.1844C0.321257 1.64997 0.506524 2.24687 1.27103 2.41057C2.06169 2.57929 2.44031 2.04211 2.52143 1.53047ZM4.92851 4.85551C4.3664 5.42413 4.56158 6.03476 4.91454 6.39173C5.24406 6.72506 5.83096 6.92296 6.40975 6.39173C7.00882 5.84226 6.79966 5.21715 6.4377 4.85096C6.07573 4.48435 5.49017 4.28735 4.92851 4.85551Z" fill="#EEEEEE"/>
</svg>
