<svg width="21" height="21" viewBox="0 0 21 21" fill="none" xmlns="http://www.w3.org/2000/svg">
<path d="M4.16034 15.8849H16.2631V20.4235H4.16034V15.8849ZM16.2631 0H4.16034V6.0514H16.2631V0ZM20.4235 7.56425V18.1542H17.0196V15.1285H3.40391V18.1542H0V7.56425H20.4235ZM17.776 10.9682C17.776 10.3565 17.4081 9.80399 16.8423 9.57055C16.2764 9.33565 15.6264 9.46566 15.1935 9.89854C14.7606 10.3314 14.6306 10.9815 14.8655 11.5473C15.0989 12.1132 15.6515 12.481 16.2631 12.481C16.665 12.481 17.0491 12.3215 17.3327 12.0378C17.6164 11.7542 17.776 11.37 17.776 10.9682Z" fill="#B4B4B4"/>
</svg>
