<svg width="26" height="15" viewBox="0 0 26 15" fill="none" xmlns="http://www.w3.org/2000/svg">
<path d="M19.7503 6.40967H8.05768C7.60097 6.40967 7.23041 6.78023 7.23041 7.23694C7.23041 7.69365 7.60097 8.06421 8.05768 8.06421H19.7503C20.207 8.06421 20.5776 7.69365 20.5776 7.23694C20.5776 6.78023 20.207 6.40967 19.7503 6.40967Z" fill="#B4B4B4"/>
<path d="M25.6121 12.738L23.6818 0.698482C23.6182 0.292375 23.266 -0.00384289 22.8545 0.000486489H2.77171C2.36023 -0.013517 2.00045 0.276243 1.92829 0.68235L0.0281561 11.6826C-0.0687889 12.2427 0.0873996 12.8179 0.453649 13.2542C0.820956 13.6893 1.36064 13.9403 1.93046 13.9403H4.16453C4.49522 14.5802 5.15555 14.9819 5.87616 14.983H23.7066C24.2743 14.983 24.8128 14.7342 25.1791 14.3022C25.5464 13.8692 25.7047 13.2971 25.6121 12.738ZM1.71832 12.1865C1.66662 12.124 1.644 12.0432 1.658 11.9635L2.74702 5.68152L3.80049 12.2997H1.92835C1.84433 12.2954 1.76787 12.2544 1.71832 12.1865ZM23.9167 13.2314C23.864 13.2928 23.7875 13.3283 23.7067 13.3283H5.87626C5.74054 13.3294 5.62312 13.2314 5.6005 13.0967L3.78114 1.66689H22.1686L23.9772 13.0137C23.989 13.0913 23.9674 13.1711 23.9167 13.2314Z" fill="#B4B4B4"/>
</svg>
