<svg width="32" height="35" viewBox="0 0 32 35" fill="none" xmlns="http://www.w3.org/2000/svg">
<path d="M3.56151 20.3676C2.96314 19.2677 3.03252 17.8065 3.73205 16.7326C3.98932 16.338 4.31018 16.0288 4.67441 15.8163C3.48057 14.6412 3.39965 13.0109 3.94018 11.7722C4.50965 10.4671 5.82196 9.43365 7.4971 9.41485C6.91609 8.50721 6.45503 7.2512 7.10975 6.0039C7.81941 4.6511 8.78052 4.18568 9.46128 4.0325C10.103 3.88797 10.7866 3.95012 11.4385 4.19871C11.4342 3.16967 11.7102 1.84285 13.0992 1.05948C12.2811 0.381644 10.7346 -0.527483 9.04507 0.38453C7.44512 1.24737 6.78603 3.66684 6.77882 3.6914C6.73257 3.86484 6.61117 4.00938 6.4464 4.08453C6.28163 4.15824 6.09374 4.15535 5.93187 4.07586C5.91453 4.06719 4.03418 3.17254 2.79842 4.23629C2.11188 4.82744 1.739 5.48504 1.68842 6.19181C1.6017 7.41311 2.48621 8.44215 2.49491 8.45229C2.62065 8.59538 2.67123 8.79049 2.62932 8.97695C2.58885 9.1634 2.46167 9.31949 2.28823 9.39608C0.873271 10.0248 0.0176463 11.3285 0.000293299 12.8865C-0.0156052 14.2437 0.61601 15.4245 1.61039 15.8942C1.81128 15.9896 1.94281 16.1876 1.95292 16.4102C1.96304 16.6328 1.84886 16.8423 1.65664 16.9551C0.383317 17.7008 0.0769204 19.2488 0.339953 20.4513C0.57554 21.5309 1.37192 22.7392 2.89961 22.8924C3.11496 22.9141 3.30284 23.0514 3.38957 23.2509C3.47628 23.4503 3.44883 23.6801 3.31586 23.8536C3.26672 23.92 2.08879 25.533 3.33031 27.0231C3.98647 27.8094 5.51708 27.4495 5.53151 27.4451C5.58065 27.4321 5.62979 27.4264 5.67894 27.4264C5.9203 27.4264 6.14432 27.5723 6.23827 27.8036C6.25706 27.8498 7.82667 31.6482 11.8882 33.5471C9.29239 30.8574 6.8225 26.2858 6.4451 22.1074C4.68182 21.9369 3.88814 20.9674 3.56151 20.3676Z" fill="black"/>
<path d="M31.2105 10.6216C30.602 9.79631 29.388 9.60554 27.8776 10.0984C27.6724 10.1663 27.4469 10.1172 27.2865 9.97119C27.1275 9.82522 27.0581 9.60408 27.1072 9.39451C27.3775 8.21947 27.5307 6.67153 26.7228 5.96624C25.7616 5.12797 23.7252 5.63526 23.0213 5.89975C22.8262 5.97346 22.6065 5.94022 22.4403 5.81159C22.2755 5.68296 22.1888 5.47772 22.2134 5.26961C22.2813 4.67846 22.2813 2.88485 21.4242 2.4238C20.2608 1.79798 19.5453 2.47149 18.5076 3.65664L18.4151 3.76215C18.2836 3.91246 18.0856 3.98617 17.8876 3.9616C17.6895 3.93558 17.5176 3.81273 17.4279 3.63496C17.4164 3.61328 16.2486 1.33981 14.507 1.78929C14.4549 1.80229 14.4044 1.81675 14.3552 1.8312C14.3451 1.83409 14.335 1.83698 14.3234 1.83987C12.6613 2.34574 12.4806 3.54535 12.7307 5.17997C12.7683 5.42134 12.6541 5.66127 12.4445 5.78555C12.2349 5.91129 11.9705 5.8954 11.7753 5.74797C11.1365 5.26379 10.369 5.06 9.72153 5.20452C9.08994 5.34472 8.56816 5.80144 8.17071 6.56168C7.4047 8.02433 9.39778 9.83677 9.41802 9.85553C9.63626 10.0478 9.6854 10.3686 9.53509 10.6172C9.38477 10.8658 9.07692 10.9713 8.80663 10.8658C6.94653 10.1504 5.54889 11.0812 5.03855 12.2519C4.56451 13.3387 4.78996 14.7783 6.36101 15.5443C6.61972 15.6715 6.75269 15.9634 6.67608 16.2424C6.59948 16.5213 6.33932 16.7077 6.04882 16.6817C5.35074 16.6283 4.9258 17.0994 4.73791 17.387C4.27974 18.0909 4.22916 19.0809 4.61651 19.7949C5.02121 20.5392 5.84358 20.9324 6.9955 20.9324H7.0085C7.32937 20.9324 7.59384 21.1853 7.60831 21.5047C7.828 26.2859 11.3516 32.0915 14.3579 34.0877C14.8232 34.397 15.2568 34.5993 15.6384 34.6875C14.1613 32.0975 13.2608 29.6418 12.7868 27.3452C12.0179 27.1356 11.3646 26.4795 10.9238 25.9129C10.1447 24.9113 9.43075 23.3937 9.64468 22.5497C9.72562 22.2317 10.0436 22.0424 10.3644 22.1204C10.6839 22.197 10.8804 22.5236 10.8081 22.843C10.7474 23.1119 11.1319 24.2508 11.9153 25.2307C12.1234 25.4908 12.3344 25.7062 12.5367 25.8681C12.3994 24.8332 12.3474 23.8331 12.3648 22.8719C12.3257 22.7476 12.3272 22.6118 12.3763 22.4846C12.4284 21.1159 12.6235 19.8281 12.914 18.627C10.9729 17.6283 9.76897 14.6813 9.42642 13.7433C9.31224 13.4326 9.47267 13.0872 9.78486 12.9744C10.0956 12.8603 10.441 13.0207 10.5538 13.3329C11.1044 14.8447 12.1002 16.6918 13.242 17.4332C13.8577 15.4358 14.7249 13.7158 15.5993 12.3169C14.8666 10.4596 15.1946 7.38697 16.0286 6.35801C16.2382 6.10074 16.6154 6.06027 16.8727 6.26839C17.1299 6.47652 17.1704 6.85518 16.9623 7.11244C16.5605 7.60964 16.2396 9.5059 16.4839 11.0059C17.8251 9.15595 18.9842 8.13268 19.0218 8.09941C19.2748 7.88406 19.652 7.91297 19.8674 8.16301C20.0842 8.41305 20.0552 8.79316 19.8052 9.00853C19.6404 9.15017 18.2674 10.3671 16.8438 12.4874C16.8105 12.6131 16.7383 12.7273 16.6313 12.8097C16.6038 12.8516 16.5764 12.895 16.5489 12.9369C18.1388 12.4585 19.7387 12.6276 20.6885 12.8126C21.0137 12.8762 21.2261 13.1912 21.1625 13.5164C21.0989 13.8416 20.7839 14.0526 20.4587 13.9905C19.3675 13.778 17.2891 13.5829 15.6243 14.6712C15.5968 14.6885 15.5679 14.7044 15.539 14.7174C15.0172 15.7523 14.5432 16.9172 14.1847 18.1992C14.1934 18.2787 14.1861 18.3611 14.1601 18.442C14.1399 18.5056 14.111 18.562 14.0749 18.6126C13.9231 19.2081 13.7974 19.8266 13.702 20.4698C14.6096 19.4075 15.7803 18.4796 17.2025 17.6962C17.4916 17.5358 17.8572 17.6413 18.0177 17.9318C18.1781 18.2223 18.0726 18.5865 17.7821 18.747C15.763 19.8613 14.3653 21.217 13.5112 22.8891C13.4967 24.0569 13.5935 25.2869 13.832 26.5761C13.8624 26.6484 13.8797 26.7279 13.8797 26.8117V26.8261C14.3321 29.1097 15.2282 31.571 16.7357 34.1884C16.8744 33.5134 16.7559 32.2806 16.662 31.3079C16.4914 29.5374 16.3151 27.7076 16.9669 26.5223C18.4064 23.9092 20.3157 23.6953 21.8506 23.5247C22.9996 23.3961 23.9072 23.2949 24.601 22.3424C25.0259 21.7585 25.1762 21.2238 25.0476 20.7526C24.799 19.8391 23.6196 19.316 23.6081 19.3116C23.358 19.2018 23.212 18.9373 23.254 18.667C23.2973 18.3967 23.517 18.19 23.7887 18.164C23.8378 18.1597 28.7634 17.6625 30.5109 15.1954C31.7033 13.5101 31.9851 11.6717 31.2104 10.6211L31.2105 10.6216Z" fill="black"/>
</svg>
