<svg width="27" height="27" viewBox="0 0 27 27" fill="none" xmlns="http://www.w3.org/2000/svg">
<path d="M13.5 0C6.06054 0 0 6.06054 0 13.5C0 20.9395 6.06054 27 13.5 27C20.9395 27 27 20.9395 27 13.5C27 6.06054 20.9395 0 13.5 0ZM13.5 2.89286C19.3764 2.89286 24.1071 7.62388 24.1071 13.5C24.1071 19.3761 19.3761 24.1071 13.5 24.1071C7.62388 24.1071 2.89286 19.3761 2.89286 13.5C2.89286 7.62388 7.62388 2.89286 13.5 2.89286ZM13.5 5.78571C12.7015 5.78571 12.0536 6.43362 12.0536 7.23214V7.44308C11.513 7.60317 11.0008 7.85365 10.5619 8.21152C9.74642 8.87635 9.20589 9.94232 9.20589 11.0893C9.20589 12.3342 10.0007 13.4304 10.803 13.9219C11.6053 14.4135 12.3756 14.598 12.9877 14.841C13.7806 15.1574 14.4397 15.3759 14.7204 15.5492C15.2986 16.4306 14.1573 16.8675 13.515 16.875C12.7184 16.875 12.0987 16.3515 11.8728 15.971C11.5338 15.2403 10.5243 14.9257 9.8387 15.3382C9.15314 15.7507 8.94033 16.8016 9.41683 17.4476C9.94796 18.3403 10.8595 19.1445 12.0536 19.5268V19.7679C12.0536 20.5664 12.7015 21.2143 13.5 21.2143C14.2985 21.2143 14.9464 20.5664 14.9464 19.7679V19.572C15.4964 19.4119 16.0086 19.152 16.4531 18.7886C17.2686 18.1237 17.8092 17.0578 17.8092 15.9107C17.8092 14.6658 17.0144 13.5697 16.2121 13.0781C15.4097 12.5866 14.6394 12.3869 14.0274 12.144C13.2326 11.8276 12.5753 11.6242 12.2946 11.4509C11.7165 10.5582 12.8615 10.1325 13.515 10.125C14.3117 10.125 14.9313 10.6486 15.1573 11.029C15.5152 11.7315 16.4907 12.0103 17.1612 11.6016C17.8317 11.1929 18.0482 10.1853 17.5981 9.53744C17.0651 8.63906 16.1498 7.81792 14.9464 7.4431V7.23217C14.9464 6.43364 14.2985 5.78571 13.5 5.78571Z" fill="#B4B4B4"/>
</svg>
