<svg width="35" height="37" viewBox="0 0 35 37" fill="none" xmlns="http://www.w3.org/2000/svg">
<path d="M34.5656 16.7397C34.2563 15.6557 33.8618 14.5992 33.3819 13.5788C32.7994 12.3893 32.3658 11.1333 32.0912 9.837C31.9799 9.07098 31.9221 8.29772 31.9178 7.5245C31.8715 6.0445 31.8253 4.51825 31.0781 3.18144C30.3294 1.84307 28.8306 0.767778 26.93 0.290811C23.6925 -0.506983 20.2685 0.360186 17.7999 2.60331C17.534 2.85335 17.2752 3.11928 17.0295 3.37365C16.4717 4.04283 15.7938 4.60361 15.0321 5.02711C14.1028 5.45927 12.909 5.38554 11.7527 5.31183C9.87527 5.19187 7.74784 5.05746 6.76512 7.31213C6.59891 7.69804 6.46449 8.08247 6.33296 8.46838H6.3344C6.12339 9.21559 5.78951 9.92092 5.34724 10.5583C4.76479 11.2275 4.07393 11.794 3.30503 12.2348C2.51734 12.6916 1.80335 13.2654 1.18907 13.9374C-0.114586 15.507 -0.360303 17.996 0.521333 20.7635C0.768482 21.5339 1.072 22.3057 1.36974 23.0413C1.95797 24.3436 2.38291 25.7123 2.6344 27.1187C2.69944 27.5885 2.7269 28.0828 2.75436 28.5597C2.81218 29.6307 2.87433 30.7378 3.3397 31.7553C4.1722 33.5663 6.03812 34.565 7.71755 35.3006C9.25971 35.9713 11.5722 36.8731 14.0494 36.9844H14.5624V36.9859C16.6625 37.0451 18.7135 36.3485 20.3437 35.0246C20.9955 34.4291 21.5896 33.7729 22.1171 33.0662C22.7111 32.238 23.4222 31.4994 24.2287 30.8765C25.067 30.3518 25.9746 29.9472 26.9271 29.674C27.4518 29.4962 27.9952 29.3112 28.5155 29.0843H28.5141C30.828 28.0842 32.7069 26.2905 33.8169 24.0286C34.9255 21.7653 35.1914 19.1806 34.5656 16.7397ZM17.4457 26.3756C15.7388 26.3727 14.1027 25.692 12.8973 24.4837C11.6919 23.2754 11.0155 21.6379 11.017 19.9309C11.017 18.2239 11.6962 16.5878 12.9031 15.381C14.11 14.1741 15.746 13.4948 17.453 13.4948C19.1599 13.4934 20.7975 14.1698 22.0058 15.3752C23.2141 16.5805 23.8949 18.2166 23.8978 19.9236C23.8963 21.6334 23.2156 23.2724 22.0058 24.4805C20.7961 25.6873 19.1557 26.3652 17.446 26.3637L17.4457 26.3756Z" fill="black"/>
<path d="M17.4457 14.2579C15.9426 14.2608 14.5016 14.8606 13.4408 15.9258C12.38 16.9895 11.7845 18.4319 11.7874 19.9366C11.7903 21.4397 12.3886 22.8792 13.4538 23.9415C14.5176 25.0023 15.96 25.5978 17.4631 25.5964C18.9663 25.5949 20.4072 24.9965 21.4695 23.9328C22.5318 22.8676 23.1273 21.4266 23.1258 19.9235C23.1229 18.4189 22.5231 16.9765 21.4579 15.9142C20.3927 14.8519 18.9504 14.2564 17.4457 14.2579ZM21.7932 20.3081C21.5793 20.3081 21.4073 20.1361 21.4073 19.9237C21.4058 17.7354 19.6324 15.9636 17.4457 15.9606C17.2318 15.9606 17.0598 15.7886 17.0598 15.5761C17.0598 15.3622 17.2318 15.1902 17.4457 15.1902C20.0574 15.1946 22.1732 17.3105 22.1776 19.9236C22.1776 20.0248 22.1372 20.1231 22.0649 20.1953C21.9926 20.2676 21.8944 20.3081 21.7932 20.3081Z" fill="black"/>
</svg>
