<svg width="24" height="32" viewBox="0 0 24 32" fill="none" xmlns="http://www.w3.org/2000/svg">
<path d="M11.6623 21.7353C14.9132 21.7353 17.5581 19.0902 17.5581 15.8395C17.5581 12.5915 14.913 9.94922 11.6623 9.94922C8.41432 9.94922 5.77203 12.5915 5.77203 15.8395C5.77203 19.0903 8.41428 21.7353 11.6623 21.7353ZM8.25453 16.5917C8.72516 16.0514 9.54295 16.172 9.89302 16.2228L9.97291 16.2344C11.1669 16.3259 11.4908 16.1138 11.5751 16.018C11.7363 15.835 11.6361 15.3571 11.5402 14.8937C11.3688 14.0672 11.1088 12.8194 12.3915 12.2166C13.1439 11.8636 13.8586 11.9639 14.4076 12.497C15.4492 13.5109 15.593 15.9192 15.0177 17.2352C14.3336 18.8025 12.3581 19.6726 10.7239 19.6726C10.628 19.6726 10.5336 19.6697 10.4406 19.6639C9.20737 19.584 8.346 19.0131 8.08015 18.0951C7.89277 17.4458 7.94949 16.9404 8.25453 16.5917Z" fill="black"/>
<path d="M1.50608 3.81156H21.8263L22.7705 1.54407C22.9158 1.194 22.8795 0.811955 22.6689 0.496767C22.4582 0.181579 22.1198 0 21.7421 0L1.59178 0.00145258C1.21267 0.00145258 0.8742 0.183024 0.663579 0.49822C0.452954 0.81343 0.416642 1.19546 0.561898 1.54552L1.50608 3.81156Z" fill="black"/>
<path d="M10.5077 18.6455C11.8063 18.7327 13.5436 18.0587 14.0825 16.8269C14.5531 15.7505 14.3512 13.8665 13.6961 13.2288C13.5348 13.0734 13.2923 12.9224 12.8274 13.1417C12.351 13.3654 12.3394 13.7067 12.5427 14.6858C12.6836 15.3612 12.842 16.1282 12.3437 16.6932C11.921 17.1726 11.1424 17.3483 9.89326 17.2524C9.85839 17.2495 9.80901 17.2423 9.74509 17.2336C9.56207 17.206 9.42407 17.1972 9.32095 17.1972C9.11178 17.1972 9.04496 17.2379 9.02463 17.2626C8.99848 17.2917 8.95636 17.4471 9.06239 17.8117C9.2614 18.4929 10.1402 18.6223 10.5077 18.6455Z" fill="black"/>
<path d="M21.7825 26.8497C23.8451 19.6389 23.8451 12.0452 21.7825 4.83447H1.54809C-0.516029 12.0452 -0.516029 19.6389 1.54809 26.8497H21.7825ZM11.6623 8.9279C15.4768 8.9279 18.5796 12.0291 18.5796 15.8408C18.5796 19.6553 15.4769 22.7581 11.6623 22.7581C7.85074 22.7581 4.74943 19.6554 4.74943 15.8408C4.74943 12.0277 7.85066 8.9279 11.6623 8.9279Z" fill="black"/>
<path d="M21.826 27.8726H1.50572L0.561532 30.14C0.416276 30.4901 0.452588 30.8722 0.663213 31.1874C0.873838 31.5026 1.2123 31.6841 1.59141 31.6841H21.7388C22.1179 31.6841 22.4563 31.504 22.667 31.1874C22.8776 30.8721 22.9139 30.4901 22.7686 30.14L21.826 27.8726Z" fill="black"/>
</svg>
