<svg width="24" height="21" viewBox="0 0 24 21" fill="none" xmlns="http://www.w3.org/2000/svg">
<path fill-rule="evenodd" clip-rule="evenodd" d="M20.2441 0C20.6796 0 21.0329 0.352747 21.0329 0.7875V18.1125H15.5118V0.7875C15.5118 0.352747 15.8651 0 16.3005 0H20.2441ZM13.6714 3.4125C14.1068 3.4125 14.4601 3.76525 14.4601 4.2V18.1125H8.93898V4.2C8.93898 3.76525 9.29228 3.4125 9.72771 3.4125H13.6714ZM22.8733 18.9C23.3087 18.9 23.662 19.2527 23.662 19.6875V20.2125C23.662 20.6473 23.3087 21 22.8733 21H0.788746C0.353313 21 1.33514e-05 20.6473 1.33514e-05 20.2125V19.6875C1.33514e-05 19.2527 0.353313 18.9 0.788746 18.9H22.8733ZM7.88734 7.35C7.88734 6.91525 7.53404 6.5625 7.09861 6.5625H3.15494C2.71951 6.5625 2.36621 6.91525 2.36621 7.35V18.1125H7.88734V7.35Z" fill="#B4B4B4"/>
</svg>
