<svg width="23" height="26" viewBox="0 0 23 26" fill="none" xmlns="http://www.w3.org/2000/svg">
<path d="M0.973328 18.7515L2.23435 19.2626V13.6193L0.973328 12.7725V18.7515Z" fill="#B4B4B4"/>
<path d="M2.56018 19.26L3.82243 18.7514V14.6852L2.56018 13.8384V19.26Z" fill="#B4B4B4"/>
<path d="M7.73401 24.5871L8.99503 25.0982V18.1642L7.73401 17.3149V24.5871Z" fill="#B4B4B4"/>
<path d="M9.32123 25.0979L10.5798 24.5869V17.2793L9.32123 18.1641V25.0979Z" fill="#B4B4B4"/>
<path d="M19.8348 16.0321L21.0958 15.5198V9.90479L19.8348 10.7896V16.0321Z" fill="#B4B4B4"/>
<path d="M18.2464 15.5194L19.5086 16.028V11.0181L18.2464 11.8992V15.5194Z" fill="#B4B4B4"/>
<path d="M9.32123 17.7594L22.0688 8.81826V5.78516L9.32123 14.7888V17.7594Z" fill="#B4B4B4"/>
<path d="M0 11.7239L8.99515 17.7694V14.7915L0 8.6958V11.7239Z" fill="#B4B4B4"/>
<path d="M13.4499 0L0.138489 8.39217L9.1556 14.5035L21.9399 5.47765L13.4499 0Z" fill="#B4B4B4"/>
</svg>
