<svg width="31" height="34" viewBox="0 0 31 34" fill="none" xmlns="http://www.w3.org/2000/svg">
<path d="M30.5008 13.6938L0.000343323 24.4313V28.2257L30.5008 17.4765V13.6938Z" fill="black"/>
<path d="M27.5445 19.933C26.6785 22.1182 25.3184 23.6788 24.1242 22.1129C22.9578 20.5827 20.5947 21.5633 20.0808 23.2029C19.116 26.2882 16.6278 27.2675 14.8629 26.0062C12.9835 24.6605 8.29536 25.1825 6.26825 28.0741C4.93315 29.9746 2.2589 31.3809 0 30.4214V32.8056C0 33.1074 0.218785 33.3882 0.462612 33.5648C0.705119 33.7401 1.0557 33.7875 1.34171 33.6926L29.8521 24.2349C30.237 24.1084 30.5006 23.7512 30.5006 23.3479V19.0987C29.3711 18.1589 28.0585 18.6347 27.5445 19.933Z" fill="black"/>
<path d="M11.9832 9.18235C13.7809 10.2697 17.6242 9.51843 17.6242 7.04724C17.6242 5.322 16.2443 5.64756 16.5922 3.75494C17.2696 0.0711916 12.9189 0 12.9189 0C15.257 1.47876 13.5726 2.67418 12.9189 3.08142C9.40656 5.26795 10.1933 8.09896 11.9832 9.18235Z" fill="black"/>
<path d="M30.5203 6.87184C30.5243 6.38157 30.15 5.97166 29.6623 5.9308L17.6515 4.93705C17.6713 4.96077 17.6818 4.9779 17.7029 5.00295C18.0047 5.36933 18.3935 5.87941 18.4542 6.82174L26.3554 7.48072L3.1142 15.3462L9.19417 6.04913L9.6502 6.08603C9.71874 5.5918 9.91117 4.98289 10.3421 4.32918L8.81726 4.20529C8.47986 4.17761 8.15434 4.33445 7.96455 4.61516L0.330835 15.9643C0.164769 16.2161 2.28882e-05 16.51 2.28882e-05 16.8105V22.9866L30.4691 12.1634L30.5203 6.87184Z" fill="black"/>
</svg>
