<svg width="39" height="28" viewBox="0 0 39 28" fill="none" xmlns="http://www.w3.org/2000/svg">
<path d="M8.1069 20.8733C6.83371 19.4288 5.81078 18.3975 4.58795 18.3975C2.79906 18.4697 0.86746 20.4248 1.06062 22.0104C1.21011 24.8357 4.91213 28.5176 7.10599 27.5046C7.6351 27.1535 7.7073 26.3456 7.67036 25.7224C7.55615 23.7908 8.38592 22.3882 8.87974 21.7315C8.62274 21.4594 8.36391 21.1673 8.1069 20.8733Z" fill="black"/>
<path d="M7.87814 11.6161C4.60275 8.89338 1.10048 11.7656 0.223713 14.9638C-0.219703 16.5225 0.0742188 18.5482 0.430315 20.0498C0.809923 19.3208 1.48179 18.5616 2.61222 17.9032C5.466 16.2503 7.45488 18.5112 8.90785 20.164C10.1357 21.449 11.0461 23.0565 12.3764 20.5352C11.812 19.949 11.4962 19.1411 11.461 18.2458C11.4106 17.0365 10.9672 13.9677 7.87654 11.6144L7.87814 11.6161Z" fill="black"/>
<path d="M13.9519 4.47614C10.1188 2.85861 5.44951 5.59147 4.64455 9.46156C5.90599 9.39101 7.03474 9.65472 8.52968 10.7633C11.9781 13.3954 12.4786 16.8439 12.5357 18.2027C12.5626 18.9502 12.8482 19.5734 13.3588 19.9916C14.0626 20.5325 14.973 20.5039 16.1421 19.9194C17.6235 19.1753 18.5894 15.999 18.3962 12.5221C18.1678 8.43039 16.5082 5.41849 13.9534 4.47464L13.9519 4.47614ZM16.0549 13.6188C15.7592 13.6222 15.5174 13.3853 15.5106 13.0897C15.4754 10.7432 14.659 7.94645 12.4771 7.13848C12.1983 7.0377 12.0622 6.73032 12.163 6.45147C12.2638 6.17264 12.5779 6.02987 12.85 6.13737C15.5476 7.13174 16.5487 10.3719 16.584 13.0694C16.5907 13.3701 16.3555 13.6136 16.0549 13.6203L16.0549 13.6188Z" fill="black"/>
<path d="M21.8282 2.33115C20.7045 0.869835 19.0685 0.140813 16.8208 0.0131894C13.1658 -0.179975 11.4054 1.79365 10.6899 2.98118C11.8841 2.86024 13.1154 3.02485 14.3231 3.46828C19.1657 5.02703 20.6673 13.575 18.5861 18.4981C21.8951 18.9583 22.8542 14.7708 23.3144 9.91312C23.5798 6.53023 23.0776 3.98213 21.8262 2.33093L21.8282 2.33115Z" fill="black"/>
<path d="M28.1019 7.29457C27.8936 4.4156 25.8679 2.37623 23.1737 2.43686C24.2252 4.27443 24.6333 6.80738 24.3831 9.99884C24.1328 13.2759 23.56 15.6865 22.6597 17.2805C27.6146 18.2446 28.6462 12.6967 28.1035 7.29457H28.1019Z" fill="black"/>
<path d="M35.5409 10.1851C35.7475 12.073 35.2974 13.8905 34.2459 15.2427C35.3326 15.1134 36.285 15.1503 37.0577 15.1705C37.874 15.199 38.645 15.2276 38.8667 15.0059C39.4983 13.2707 37.0409 11.3088 35.5409 10.1851Z" fill="black"/>
<path d="M34.2814 9.20404C33.6415 6.0496 30.2989 5.45667 28.8527 5.59943C29.8302 9.35522 29.2558 14.297 27.7004 16.3795C29.5615 16.6432 31.0698 16.393 32.2709 15.622C34.2748 14.3034 34.9046 11.7486 34.2815 9.20554L34.2814 9.20404Z" fill="black"/>
</svg>
