<svg width="38" height="18" viewBox="0 0 38 18" fill="none" xmlns="http://www.w3.org/2000/svg">
<path d="M24.3464 1.86351C24.6878 2.15297 24.8511 2.58939 24.7842 3.03171L24.5571 4.51607L26.1632 2.92778L26.0935 0.448888C26.089 0.275216 25.9925 0.126778 25.8382 0.0495843C25.6838 -0.0276089 25.5072 -0.0142445 25.3661 0.0866937L23.2524 1.58887C23.6398 1.50575 24.0391 1.60375 24.3464 1.86351Z" fill="black"/>
<path d="M23.8402 7.99268C24.0688 7.73885 24.8095 6.82596 24.3479 6.05703C23.671 4.92741 20.3073 4.80421 17.8715 4.90518C18.8349 5.22432 19.586 5.59837 20.1486 6.03777C20.8418 6.57957 21.2589 7.23712 21.3954 7.99268H23.8402Z" fill="black"/>
<path d="M24.8837 5.7374C24.9253 5.80717 24.9594 5.87694 24.9891 5.9467C25.4374 5.62608 26.2375 5.17633 27.2825 5.09022C27.7589 5.05163 28.4462 5.15553 29.1943 5.32772L28.6807 2.40647C28.6481 2.22241 28.5219 2.07842 28.3438 2.02202C28.1656 1.96562 27.9801 2.01015 27.8465 2.14077L24.5779 5.37374C24.7026 5.48507 24.805 5.60678 24.8837 5.7374Z" fill="black"/>
<path d="M19.9661 6.69824L19.457 7.9926H20.7603C20.649 7.50722 20.3877 7.07972 19.9661 6.69824Z" fill="black"/>
<path d="M31.5367 4.8114L31.6436 3.25576C31.654 3.10435 31.5887 2.96779 31.4655 2.88021C31.3423 2.79263 31.1909 2.77779 31.0528 2.83865L29.5076 3.51254L29.8297 5.34129L31.5367 4.8114Z" fill="black"/>
<path d="M36.2183 7.99236L37.1238 5.86972C37.1787 5.74058 37.1594 5.59956 37.0719 5.4912C36.9843 5.38284 36.8507 5.33237 36.7126 5.35909L36.0669 5.48081L35.1808 7.99386L36.2183 7.99236Z" fill="black"/>
<path d="M31.7001 6.04666C32.0519 6.16245 32.2969 6.46231 32.3414 6.83041C32.3859 7.19705 32.2182 7.54736 31.905 7.74329L31.5042 7.99415H34.519L35.5373 5.10406C35.6041 4.91257 35.561 4.71068 35.42 4.56522C35.279 4.41827 35.0786 4.3678 34.8856 4.42717L30.6832 5.7275C31.038 5.8314 31.381 5.94128 31.7001 6.04666Z" fill="black"/>
<path d="M13.595 7.99234H18.7874L19.4509 6.30461C18.6493 5.78359 17.49 5.36498 15.9225 5.02952C15.7726 4.99686 15.6687 4.86178 15.6761 4.70889C15.6835 4.556 15.8023 4.43131 15.9537 4.41499C15.973 4.4135 17.8596 4.2146 19.8665 4.2621C19.9957 4.26506 20.1233 4.26952 20.248 4.27397L20.4143 3.85092C20.4662 3.71881 20.4499 3.57482 20.3682 3.45754C20.2866 3.34028 20.1575 3.27496 20.015 3.27793C16.3174 3.35809 13.7168 3.78705 12.8797 4.45506C12.2963 4.92116 12.7224 6.00918 12.9242 6.44116C13.3309 6.39218 13.7525 6.32835 14.2008 6.25413C14.3121 6.23483 14.4249 6.27788 14.4962 6.36695C14.5674 6.45452 14.5838 6.57476 14.5407 6.67866C14.3136 7.23829 14.0003 7.67322 13.595 7.99234Z" fill="black"/>
<path d="M31.7237 6.90474C31.7089 6.77857 31.6272 6.67763 31.5055 6.63904C29.5179 5.98293 28.035 5.65491 27.3331 5.7113C26.2005 5.80334 25.3945 6.40154 25.1244 6.63014C25.1154 7.16005 24.869 7.64843 24.633 7.99427H30.3315L31.5754 7.21645C31.6837 7.14668 31.74 7.03091 31.7237 6.90474Z" fill="black"/>
<path d="M37.7771 8.97197C37.5901 8.74635 37.3155 8.61721 37.023 8.61721L0.976608 8.61572C0.684187 8.61572 0.409572 8.74486 0.222536 8.97049C0.0369896 9.19463 -0.0372282 9.48558 0.0176932 9.7691C0.630747 12.9694 2.99682 15.3817 5.52009 15.3817H32.4792C35.0026 15.3817 37.3687 12.9681 37.9816 9.7691C38.0365 9.48558 37.9627 9.19465 37.7771 8.97197Z" fill="black"/>
<path d="M11.9907 7.99246C12.7715 7.87668 13.3162 7.55459 13.6962 6.96677C12.3662 7.16715 11.2248 7.24434 9.94671 7.08403C9.37078 7.01129 8.76365 6.77528 8.1224 6.5244C7.07147 6.11472 5.9849 5.69167 5.15958 6.09246C4.21254 6.5526 4.41296 7.5694 4.54504 7.99098L11.9907 7.99246Z" fill="black"/>
<path d="M20.9948 4.08133L20.9042 4.3129C22.1823 4.40344 23.1724 4.60829 23.8656 4.92299L24.1684 2.93984C24.2025 2.71273 24.1194 2.48859 23.9442 2.34165C23.7691 2.19321 23.5346 2.14719 23.3164 2.21844L20.8226 3.03335C20.8419 3.0571 20.8627 3.08085 20.8805 3.10609C21.0794 3.3896 21.1224 3.75624 20.9948 4.08133Z" fill="black"/>
<path d="M1.85672 6.41731L3.82797 7.63152C3.77156 7.17138 3.82055 6.64888 4.10555 6.20652L1.96953 6.06551C1.83445 6.0566 1.78992 6.15457 1.77508 6.19762C1.76172 6.23919 1.74242 6.34606 1.85672 6.41731Z" fill="black"/>
<path d="M5.83202 16.0068H32.1679V17.2804H5.83202V16.0068Z" fill="black"/>
<path d="M4.96333 5.49876C6.01871 5.03713 7.25519 5.51805 8.34921 5.94556C8.54218 6.02126 8.73217 6.094 8.91625 6.16228L8.48875 3.40283L4.94703 3.56908C4.77633 3.5765 4.62641 3.66408 4.53291 3.80658C4.44088 3.94908 4.42307 4.12275 4.48541 4.28158L4.96333 5.49876Z" fill="black"/>
<path d="M20.6668 2.4259L17.6625 0.690666C17.4547 0.570431 17.2068 0.551134 16.9826 0.638713C16.7585 0.724805 16.5893 0.905902 16.5165 1.1345L15.9436 2.9395C17.3433 2.75395 18.8485 2.68418 19.956 2.65895L20.6668 2.4259Z" fill="black"/>
<path d="M11.9622 1.23273L15.3095 2.87741L15.829 1.24163L12.3526 0.119449C12.2101 0.0734344 12.0661 0.104605 11.9548 0.204059C11.8434 0.303513 11.7974 0.444527 11.8286 0.589988L11.9622 1.23273Z" fill="black"/>
<path d="M9.57996 6.37586C9.73284 6.41594 9.88277 6.44859 10.0253 6.4664C10.7957 6.56289 11.5171 6.56734 12.2712 6.50945C11.9995 5.86524 11.6492 4.64509 12.4923 3.97116C12.9228 3.62679 13.6546 3.37149 14.52 3.18297L9.33791 0.638754C9.19986 0.570472 9.04252 0.583832 8.91782 0.675863C8.79313 0.767896 8.73227 0.913363 8.75602 1.06624L9.57996 6.37586Z" fill="black"/>
</svg>
